<svg width="264" height="91" viewBox="0 0 264 91" fill="none" xmlns="http://www.w3.org/2000/svg">
<path fill-rule="evenodd" clip-rule="evenodd" d="M52.359 0.0793282C49.886 0.382684 46.8853 1.74463 44.97 3.43282C43.7172 4.53718 42.4842 6.33793 37.1759 14.8167C36.6712 15.6226 35.9959 16.6959 35.6751 17.202C35.3542 17.7078 34.1114 19.6755 32.9135 21.5748C31.7155 23.4739 29.4383 27.077 27.853 29.5816C26.2676 32.0862 24.5759 34.766 24.0936 35.5366C22.8023 37.6006 8.54464 60.2187 5.03005 65.7788C3.36562 68.4118 1.71379 71.146 1.35935 71.8545C-2.39116 79.3506 1.97677 88.7672 10.0761 90.6469C11.3951 90.9531 14.3163 90.9944 31.0505 90.943L50.4923 90.8832L50.5529 79.6946C50.6201 67.2713 50.6362 67.4135 49.1746 67.4135C48.5488 67.4135 47.8807 67.981 44.2254 71.617C41.1717 74.6548 39.8488 75.8206 39.4557 75.8206C39.0928 75.8206 38.3338 75.2496 37.1766 74.1067C34.6701 71.6303 34.5697 71.9264 39.6419 66.8233C44.035 62.4033 44.2858 62.0194 43.3753 61.1082C42.9339 60.6663 42.5976 60.6411 37.1271 60.6411C29.8329 60.6411 30.3082 60.8772 30.3082 57.2549C30.3082 53.6289 29.8184 53.8687 37.227 53.8687C45.6051 53.8687 45.5853 53.9192 39.5835 47.8199C34.5534 42.7084 34.6561 43.0386 37.3005 40.463C38.8522 38.9516 39.2471 38.679 39.6923 38.8126C39.9853 38.9006 42.1218 40.853 44.4396 43.1514C46.7576 45.4495 48.8362 47.3299 49.0588 47.3299C49.2814 47.3299 49.7211 47.0719 50.0361 46.7566L50.6089 46.1835V40.2311C50.6089 33.0909 50.3835 33.5516 53.8757 33.5516C57.3679 33.5516 57.1425 33.0909 57.1425 40.2311V46.1835L57.7154 46.7566C58.0304 47.0719 58.47 47.3299 58.6926 47.3299C58.9152 47.3299 60.9938 45.4521 63.3118 43.1567C65.6296 40.8616 67.7798 38.9228 68.09 38.8481C68.8815 38.658 72.3097 41.9501 72.3097 42.9001C72.3097 43.4019 71.4708 44.3648 68.1096 47.7204C63.698 52.1245 63.3774 52.614 64.3362 53.4823C64.7093 53.8204 65.4985 53.8687 70.6364 53.8687C77.9017 53.8687 77.4432 53.6336 77.4432 57.3584C77.4432 60.8581 77.8903 60.6411 70.6763 60.6411C62.063 60.6411 62.0399 60.6969 68.1096 66.8297C71.4734 70.2284 72.3097 71.199 72.3097 71.7048C72.3097 72.5829 69.0796 75.8206 68.2034 75.8206C67.7346 75.8206 66.6624 74.8876 63.3723 71.617C56.8198 65.1036 57.1425 64.6837 57.1425 79.7259V91L76.6849 90.9965C97.9008 90.9928 97.7568 91.0007 100.373 89.6925C104.988 87.3859 107.656 82.978 107.641 77.6888C107.63 73.727 107.47 73.3456 102.565 65.5452C101.717 64.1966 100.915 62.9355 100.782 62.7429C100.512 62.3501 91.5133 48.0933 88.2848 42.943C87.1346 41.1082 85.7735 38.9431 85.2602 38.1321C84.7468 37.3208 83.242 34.9339 81.9162 32.8275C80.5903 30.7213 78.3764 27.2113 76.9964 25.0278C75.6164 22.8443 72.9393 18.598 71.0473 15.5918C65.2626 6.40028 64.7949 5.67891 63.9439 4.63246C61.4122 1.51927 56.4656 -0.424863 52.359 0.0793282ZM168.037 17.3977C167.805 17.5453 167.757 22.4991 167.804 41.3894L167.863 65.1949L171.48 65.2617C173.469 65.2986 175.333 65.2704 175.622 65.1989L176.147 65.0693V41.2787C176.147 19.8002 176.111 17.4743 175.778 17.3463C175.23 17.1359 168.377 17.1814 168.037 17.3977ZM195.631 25.8435C185.918 26.9217 178.491 35.6329 178.482 45.9565C178.476 52.4274 181.057 57.9401 186.007 62.0292C191.882 66.882 200.581 67.6673 207.701 63.9874C209.998 62.7999 210.448 62.8487 210.448 64.2849C210.448 65.3087 210.621 65.3449 215.115 65.2617L218.732 65.1949L218.791 46.4542C218.824 36.1469 218.93 27.7134 219.027 27.7134C219.123 27.7134 219.677 28.6853 220.257 29.8735C220.837 31.0617 225.115 39.6234 229.763 48.8999C234.412 58.1764 238.216 65.8713 238.216 65.9997C238.216 66.1281 238.012 66.6828 237.762 67.232C235.193 72.89 235.077 73.2875 235.867 73.7106C236.119 73.8456 237.825 73.9523 239.732 73.9523C242.897 73.9523 244.049 73.7713 244.049 73.2748C244.049 73.1174 247.884 64.3171 249.269 61.2971C249.464 60.8721 250.424 58.6853 251.404 56.4376C252.383 54.1898 253.586 51.4575 254.076 50.3658C254.567 49.274 256.145 45.701 257.583 42.4258C259.021 39.1505 261.037 34.5792 262.063 32.2672C263.089 29.9553 263.944 27.7484 263.964 27.3631L264 26.6625L259.891 26.599C255.159 26.5257 255.693 26.2601 254.367 29.3481C253.844 30.5683 252.716 33.143 251.862 35.0696C250.461 38.2271 249.671 40.0228 247.187 45.6952C242.586 56.1991 242.7 55.9855 241.874 55.6686C241.669 55.5899 241.184 54.8451 240.796 54.0138C240.407 53.1822 239.038 50.3249 237.753 47.6643C236.467 45.0035 235.416 42.7994 235.416 42.766C235.416 42.6981 229.529 30.5384 228.355 28.1805L227.599 26.6625L223.399 26.6961C221.088 26.7146 218.988 26.7307 218.732 26.7321C218.475 26.7335 216.678 26.7031 214.739 26.6648C210.776 26.5864 210.673 26.6153 210.47 27.8617C210.268 29.1076 209.858 29.1059 207.429 27.8502C204.14 26.1504 199.688 25.3933 195.631 25.8435ZM140.874 26.2924C139.605 26.5679 138.015 27.1503 136.604 27.8561C134.111 29.1029 133.622 29.0858 133.489 27.7484C133.449 27.3442 133.232 26.915 133.008 26.7949C132.465 26.5039 126.016 26.5088 125.472 26.8005C125.063 27.0198 125.045 27.9871 125.045 50.2105C125.045 67.9291 125.111 73.4579 125.325 73.6721C125.717 74.0644 132.773 74.0644 133.165 73.6721C133.365 73.4717 133.445 71.9816 133.445 68.4461C133.445 62.4008 133.418 62.4568 135.745 63.7176C147.271 69.9618 161.47 64.0233 164.878 51.5334C165.487 49.3035 165.472 42.7231 164.853 40.4408C163.108 34.0061 157.485 28.201 151.331 26.4808C148.878 25.7952 143.602 25.7001 140.874 26.2924ZM147.532 33.4367C151.982 34.5967 155.617 38.2809 156.653 42.681C158.275 49.5653 154.32 56.7727 148.021 58.4149C143.654 59.5533 138.771 58.3796 135.626 55.4353C133.344 53.2985 133.445 53.7438 133.445 45.8587V38.9929L134.126 38.0522C136.874 34.2557 142.82 32.2084 147.532 33.4367ZM204.023 34.117C206.148 34.8405 208.33 36.2972 209.587 37.8329L210.448 38.8848V46.0011V53.1177L209.69 54.0383C206.593 57.7967 200.733 59.5048 195.714 58.112C186.89 55.663 183.952 43.8947 190.467 37.0978C193.919 33.4977 198.952 32.391 204.023 34.117Z" fill="#FF4707"/>
</svg>
